#!OML:ASF I:\Actors\actors\Patient Classification 2\Patient 1\Session 1\actor1.ASF
:FULLY-SPECIFIED
:DEGREES
471
root -0.942594 18.2082 5.41312 0.909038 -10.7843 -5.35285
lowerback 9.47869 -2.31048 1.2551
upperback 2.93716 -2.9451 0.448288
thorax -2.29841 -1.47144 0.0913093
lowerneck -0.801387 1.74007 4.85702
upperneck 12.9095 1.657 3.35183
head 4.41843 1.17461 0.339978
rclavicle -3.37934e-014 3.33958e-014
rhumerus 1.28957 18.0154 -45.6985
rradius 143.082
rwrist -48.7818
rhand 13.2782 -44.96
rfingers 7.12502
rthumb 38.2285 -70.6967
lclavicle -3.37934e-014 3.33958e-014
lhumerus -52.7044 -17.9575 96.6566
lradius 87.4663
lwrist 21.1648
lhand -8.97961 -13.7954
lfingers 7.12502
lthumb 16.9661 15.4836
rfemur 0 0 0
rtibia 0
rfoot 0 0
rtoes 0
lfemur 17.6383 -2.94192 -12.1276
ltibia -17.9643
lfoot -5.94519 26.4253
ltoes -6.25041
472
root -0.942304 18.2094 5.4181 0.965851 -10.7542 -5.35129
lowerback 9.37718 -2.27736 1.37013
upperback 2.93263 -2.8929 0.428873
thorax -2.25333 -1.44534 -0.00314465
lowerneck -0.798595 1.71895 4.82275
upperneck 12.8626 1.64536 3.24988
head 4.40072 1.16191 0.310474
rclavicle 2.78299e-015 -1.59028e-015
rhumerus 1.07727 17.2155 -45.8093
rradius 143.491
rwrist -49.1967
rhand 11.9641 -45.1623
rfingers 7.12502
rthumb 36.9868 -71.2302
lclavicle 2.78299e-015 -1.59028e-015
lhumerus -52.6252 -18.3308 96.7716
lradius 87.4226
lwrist 21.1652
lhand -8.89097 -13.7932
lfingers 7.12502
lthumb 17.0514 15.4785
rfemur 0 0 0
rtibia 0
rfoot 0 0
rtoes 0
lfemur 17.5544 -3.01456 -12.1377
ltibia -17.9114
lfoot -6.03129 26.4673
ltoes -5.80597
473
root -0.942386 18.2098 5.42389 0.98214 -10.6683 -5.36341
lowerback 9.33627 -2.26847 1.44956
upperback 2.88529 -2.87362 0.439317
thorax -2.28286 -1.43593 -0.03942
lowerneck -0.622529 1.75343 4.81612
upperneck 12.8893 1.7133 3.15524
head 4.37687 1.18988 0.280992
rclavicle -2.36554e-014 -1.19271e-014
rhumerus 0.709886 15.8795 -46.1142
rradius 143.552
rwrist -49.8116
rhand 11.2043 -45.2116
rfingers 7.12502
rthumb 36.2677 -71.4619
lclavicle -2.36554e-014 -1.19271e-014
lhumerus -52.6721 -18.6579 96.9317
lradius 87.4841
lwrist 21.1368
lhand -8.87697 -13.8101
lfingers 7.12502
lthumb 17.0649 15.4604
rfemur 0 0 0
rtibia 0
rfoot 0 0
rtoes 0
lfemur 17.5234 -3.12632 -12.1365
ltibia -17.9062
lfoot -6.03062 26.4997
ltoes -5.8572
474
root -0.941937 18.2107 5.42793 1.01415 -10.5291 -5.36141
lowerback 9.271 -2.3019 1.49874
upperback 2.82936 -2.91346 0.456013
thorax -2.30684 -1.45598 -0.0464781
lowerneck -0.455772 1.83272 4.87315
upperneck 13.0248 1.83564 3.03427
head 4.39684 1.24898 0.235195
rclavicle 4.91992e-014 -1.35174e-014
rhumerus 0.406086 14.5034 -46.5824
rradius 143.165
rwrist -50.1744
rhand 9.95291 -45.2385
rfingers 7.12502
rthumb 35.0817 -71.7754
lclavicle 4.91992e-014 -1.35174e-014
lhumerus -52.7675 -18.8329 97.0608
lradius 87.6309
lwrist 21.0931
lhand -8.90714 -13.7815
lfingers 7.12502
lthumb 17.0358 15.4915
rfemur 0 0 0
rtibia 0
rfoot 0 0
rtoes 0
lfemur 17.4738 -3.23028 -12.1379
ltibia -17.936
lfoot -5.97709 26.4724
ltoes -6.02766
475
root -0.941883 18.2115 5.43145 1.06356 -10.4372 -5.39099
lowerback 9.19929 -2.36257 1.55491
upperback 2.76975 -2.98902 0.471961
thorax -2.33198 -1.49386 -0.0544057
lowerneck -0.391276 1.91499 4.91337
upperneck 13.221 1.94582 2.97991
head 4.45865 1.30642 0.216131
rclavicle -4.56211e-014 1.03368e-014
rhumerus 0.219647 13.7124 -47.2563
rradius 142.379
rwrist -49.8324
rhand 8.37667 -45.0823
rfingers 7.12502
rthumb 33.5851 -71.9572
lclavicle -4.56211e-014 1.03368e-014
lhumerus -52.8677 -18.7761 97.0944
lradius 87.7622
lwrist 21.05
lhand -9.05124 -13.8243
lfingers 7.12502
lthumb 16.8971 15.4606
rfemur 0 0 0
rtibia 0
rfoot 0 0
rtoes 0
lfemur 17.4351 -3.26319 -12.0932
ltibia -17.9704
lfoot -5.98545 26.4155
ltoes -5.78608
